<svg width="24" height="25" viewBox="0 0 24 25" fill="none" xmlns="http://www.w3.org/2000/svg">
<path d="M19.95 21.5371C17.8667 21.5371 15.8083 21.0829 13.775 20.1746C11.7417 19.2663 9.89167 17.9788 8.225 16.3121C6.55833 14.6454 5.27083 12.7954 4.3625 10.7621C3.45417 8.72878 3 6.67044 3 4.58711C3 4.28711 3.1 4.03711 3.3 3.83711C3.5 3.63711 3.75 3.53711 4.05 3.53711H8.1C8.33333 3.53711 8.54167 3.61628 8.725 3.77461C8.90833 3.93294 9.01667 4.12044 9.05 4.33711L9.7 7.83711C9.73333 8.10378 9.725 8.32878 9.675 8.51211C9.625 8.69544 9.53333 8.85378 9.4 8.98711L6.975 11.4371C7.30833 12.0538 7.70417 12.6496 8.1625 13.2246C8.62083 13.7996 9.125 14.3538 9.675 14.8871C10.1917 15.4038 10.7333 15.8829 11.3 16.3246C11.8667 16.7663 12.4667 17.1704 13.1 17.5371L15.45 15.1871C15.6 15.0371 15.7958 14.9246 16.0375 14.8496C16.2792 14.7746 16.5167 14.7538 16.75 14.7871L20.2 15.4871C20.4333 15.5538 20.625 15.6746 20.775 15.8496C20.925 16.0246 21 16.2204 21 16.4371V20.4871C21 20.7871 20.9 21.0371 20.7 21.2371C20.5 21.4371 20.25 21.5371 19.95 21.5371Z" fill="white"/>
</svg>
