<svg width="40" height="41" viewBox="0 0 40 41" fill="none" xmlns="http://www.w3.org/2000/svg">
<g clip-path="url(#clip0_5_1347)">
<path d="M30 20.4909C30 14.9681 25.5228 10.4909 20 10.4909C14.4772 10.4909 10 14.9681 10 20.4909C10 26.0137 14.4772 30.4909 20 30.4909C25.5203 30.4848 29.9938 26.0112 30 20.4909ZM19.1666 25.4909V24.8185C18.6887 24.6635 18.2395 24.431 17.8369 24.1306C17.473 23.8486 17.4067 23.325 17.6888 22.9611C17.9709 22.5972 18.4945 22.531 18.8584 22.8131C18.877 22.8269 20.1531 23.7868 20.7431 23.0832C20.948 22.9006 21.0384 22.6218 20.9799 22.3537C20.7352 21.823 20.2695 21.4267 19.7063 21.2703C18.6298 20.938 17.7759 20.1126 17.4073 19.0479C17.2171 18.257 17.4327 17.4233 17.9823 16.8238C18.2869 16.45 18.7012 16.1815 19.1666 16.0563V15.4909C19.1666 15.0306 19.5398 14.6575 20 14.6575C20.4602 14.6575 20.8334 15.0306 20.8334 15.4909V16.1492C21.3124 16.3078 21.7618 16.5449 22.1631 16.8508C22.5265 17.1335 22.5919 17.6573 22.3092 18.0206C22.0265 18.384 21.5027 18.4494 21.1394 18.1667C21.1288 18.1584 19.852 17.1931 19.257 17.8982C19.0522 18.0808 18.9617 18.3596 19.0202 18.6278C19.2649 19.1585 19.7307 19.5547 20.2938 19.7111C21.3704 20.0435 22.2242 20.8688 22.5928 21.9335C22.783 22.7244 22.5675 23.5581 22.0178 24.1577C21.7127 24.5294 21.2984 24.7954 20.8334 24.9181V25.4909C20.8334 25.9511 20.4602 26.3242 20 26.3242C19.5398 26.3242 19.1666 25.9511 19.1666 25.4909Z" fill="#272725"/>
<path d="M39.8333 7.49086L34.8333 0.824221C34.5309 0.456018 33.9872 0.402736 33.619 0.705158C33.5756 0.740861 33.5357 0.780705 33.5 0.824221L28.5 7.49086C28.2238 7.85906 28.2984 8.38141 28.6666 8.6575C28.8108 8.76571 28.9863 8.82414 29.1666 8.82414H31.6666V20.4908C31.6593 26.9312 26.4403 32.1503 20 32.1576H14.1666C13.7064 32.1576 13.3333 32.5307 13.3333 32.9909V36.3243C13.3333 36.7845 13.7064 37.1577 14.1666 37.1577H20C29.2004 37.1473 36.6562 29.6914 36.6666 20.491V8.82422H39.1666C39.6268 8.82422 40 8.4511 40 7.99086C40 7.81055 39.9415 7.63516 39.8333 7.49086Z" fill="#272725"/>
<path d="M10.8334 32.1576H8.33336V20.4909C8.34062 14.0505 13.5597 8.83148 20 8.82422H25.8334C26.2936 8.82422 26.6667 8.45109 26.6667 7.99086V4.65758C26.6667 4.19734 26.2936 3.82422 25.8334 3.82422H20C10.7995 3.83461 3.34375 11.2905 3.33336 20.4909V32.1575H0.833359C0.373125 32.1576 0 32.5306 0 32.9909C0 33.1712 0.0585156 33.3466 0.166641 33.4909L5.16664 40.1575C5.44281 40.5257 5.96516 40.6003 6.33328 40.3241C6.39648 40.2768 6.45258 40.2206 6.49992 40.1575L11.4999 33.4909C11.7761 33.1227 11.7014 32.6003 11.3333 32.3242C11.1891 32.216 11.0137 32.1576 10.8334 32.1576Z" fill="#272725"/>
</g>
<defs>
<clipPath id="clip0_5_1347">
<rect width="40" height="40" fill="white" transform="translate(0 0.5)"/>
</clipPath>
</defs>
</svg>
