<svg width="40" height="41" viewBox="0 0 40 41" fill="none" xmlns="http://www.w3.org/2000/svg">
<path d="M38.75 17.375V23.625C38.75 25.3486 37.3486 26.75 35.625 26.75H34.7742C33.5791 33.8325 27.4182 39.25 20 39.25C19.3091 39.25 18.75 38.6909 18.75 38C18.75 37.3091 19.3091 36.75 20 36.75C26.8921 36.75 32.5 31.1421 32.5 24.25V16.75C32.5 9.85791 26.8921 4.25 20 4.25C13.1079 4.25 7.5 9.85791 7.5 16.75V25.5C7.5 26.1909 6.94092 26.75 6.25 26.75H4.375C2.65137 26.75 1.25 25.3486 1.25 23.625V17.375C1.25 15.6514 2.65137 14.25 4.375 14.25H5.22583C6.4209 7.16748 12.5818 1.75 20 1.75C27.4182 1.75 33.5791 7.16748 34.7742 14.25H35.625C37.3486 14.25 38.75 15.6514 38.75 17.375ZM20 6.75C14.4861 6.75 10 11.2361 10 16.75V23C10 28.5139 14.4861 33 20 33C25.5139 33 30 28.5139 30 23V16.75C30 11.2361 25.5139 6.75 20 6.75Z" fill="#272725"/>
</svg>
