<svg width="40" height="41" viewBox="0 0 40 41" fill="none" xmlns="http://www.w3.org/2000/svg">
<g clip-path="url(#clip0_5_1359)">
<path d="M37.9912 20.5L39.9021 15.9625C40.1232 15.4368 39.9607 14.8274 39.506 14.4821L35.585 11.5032L34.9639 6.61812C34.892 6.05329 34.4467 5.60798 33.8819 5.53611L28.9968 4.91502L26.0187 0.993971C25.6734 0.540071 25.0648 0.376791 24.5382 0.597882L20 2.5088L15.4625 0.597882C14.936 0.376791 14.3274 0.539289 13.9821 0.993971L11.0032 4.91502L6.11812 5.53611C5.55329 5.60798 5.10798 6.05329 5.03611 6.61812L4.41502 11.5032L0.493971 14.4813C0.0392893 14.8266 -0.123209 15.4352 0.0978824 15.9618L2.0088 20.5L0.0978824 25.0374C-0.123209 25.5632 0.0392893 26.1726 0.493971 26.5179L4.41502 29.4968L5.03611 34.3819C5.10798 34.9467 5.55329 35.392 6.11812 35.4639L11.0032 36.085L13.9813 40.006C14.2235 40.3248 14.5954 40.4998 14.9774 40.4998C15.3356 40.4998 15.1343 40.54 20 38.4912L24.5374 40.4021C25.064 40.6232 25.6726 40.4607 26.0179 40.006L28.9968 36.085L33.8819 35.4639C34.4467 35.392 34.892 34.9467 34.9639 34.3819L35.585 29.4968L39.506 26.5187C39.9607 26.1734 40.1232 25.5648 39.9021 25.0382L37.9912 20.5ZM33.7498 20.5C33.7498 28.0819 27.5819 34.2498 20 34.2498C12.418 34.2498 6.25015 28.0819 6.25015 20.5C6.25015 12.918 12.418 6.75015 20 6.75015C27.5819 6.75015 33.7498 12.918 33.7498 20.5Z" fill="#272725"/>
<path d="M20 9.25012C13.7969 9.25012 8.75012 14.2969 8.75012 20.5C8.75012 26.703 13.7969 31.7499 20 31.7499C26.203 31.7499 31.2499 26.703 31.2499 20.5C31.2499 14.2969 26.203 9.25012 20 9.25012ZM13.1251 16.75C13.1251 15.3711 14.2469 14.2501 15.625 14.2501C17.0031 14.2501 18.125 15.3711 18.125 16.75C18.125 18.1289 17.0031 19.25 15.625 19.25C14.2469 19.25 13.1251 18.1289 13.1251 16.75ZM16.6117 27.5171C16.1902 28.0604 15.4046 28.1616 14.8579 27.7366C14.3126 27.3124 14.2149 26.5273 14.6383 25.9827L23.3882 14.7329C23.8124 14.1876 24.5976 14.0899 25.1421 14.5133C25.6874 14.9376 25.7851 15.7227 25.3616 16.2672L16.6117 27.5171ZM24.3749 27.9999C22.9968 27.9999 21.875 26.8788 21.875 25.4999C21.875 24.121 22.9968 23 24.3749 23C25.753 23 26.8749 24.121 26.8749 25.4999C26.8749 26.8788 25.753 27.9999 24.3749 27.9999Z" fill="#272725"/>
</g>
<defs>
<clipPath id="clip0_5_1359">
<rect width="40" height="40" fill="white" transform="translate(0 0.5)"/>
</clipPath>
</defs>
</svg>
