<svg width="24" height="24" viewBox="0 0 24 24" fill="none" xmlns="http://www.w3.org/2000/svg">
<path d="M9.69604 13.248C9.62404 13.248 8.04004 13.248 7.32004 13.248C6.93604 13.248 6.81604 13.104 6.81604 12.744C6.81604 11.784 6.81604 10.8 6.81604 9.84001C6.81604 9.45601 6.96004 9.33601 7.32004 9.33601H9.69604C9.69604 9.26401 9.69604 7.87201 9.69604 7.22401C9.69604 6.26401 9.86404 5.35201 10.344 4.51201C10.848 3.64801 11.568 3.07201 12.48 2.73601C13.08 2.52001 13.68 2.42401 14.328 2.42401H16.68C17.016 2.42401 17.16 2.56801 17.16 2.90401V5.64001C17.16 5.97601 17.016 6.12001 16.68 6.12001C16.032 6.12001 15.384 6.12001 14.736 6.14401C14.088 6.14401 13.752 6.45601 13.752 7.12801C13.728 7.84801 13.752 8.54401 13.752 9.28801H16.536C16.92 9.28801 17.064 9.43201 17.064 9.81601V12.72C17.064 13.104 16.944 13.224 16.536 13.224C15.672 13.224 13.824 13.224 13.752 13.224V21.048C13.752 21.456 13.632 21.6 13.2 21.6C12.192 21.6 11.208 21.6 10.2 21.6C9.84004 21.6 9.69604 21.456 9.69604 21.096C9.69604 18.576 9.69604 13.32 9.69604 13.248Z" fill="#272725"/>
</svg>
