<svg width="40" height="40" viewBox="0 0 40 40" fill="none" xmlns="http://www.w3.org/2000/svg">
<g clip-path="url(#clip0_450_21479)">
<path d="M20 0C31 0 40 9 40 20C40 31 31 40 20 40C9 40 0 30.9999 0 20C0 9.00014 9 0 20 0Z" fill="#DD4B39"/>
<path d="M30.1253 16.625V18.875H32.3752V21.1251H30.1253V23.3751H27.8753V21.1251H25.6252V18.875H27.8753V16.625H30.1253Z" fill="white"/>
<path d="M9.87525 25.6248C6.87525 22.6248 6.87525 17.3748 10.0002 14.3749C12.2502 12.1249 15.5001 11.625 18.3752 12.7499L19.5001 13.3749L20.7502 14.25L18.7502 16.25L18.0002 15.7501C16.2502 14.6251 13.7502 14.875 12.1253 16.5C10.2502 18.3751 10.1253 21.7501 12.1253 23.7501C14.0003 25.7501 17.3753 25.7501 19.1253 23.7501C19.6252 23.2501 20.1253 22.5 20.2502 21.7501V21.5H15.7503V19.0001H22.8752L23.0002 19.6251V21.3751C22.8752 23.0001 22.2502 24.6251 21.1251 25.7501C18.1253 28.6248 12.8752 28.6248 9.87525 25.6248Z" fill="white"/>
</g>
<defs>
<clipPath id="clip0_450_21479">
<rect width="40" height="40" fill="white"/>
</clipPath>
</defs>
</svg>
