<svg width="24" height="24" viewBox="0 0 24 24" fill="none" xmlns="http://www.w3.org/2000/svg">
<path d="M21.6 21.6V14.568C21.6 11.112 20.856 8.47205 16.824 8.47205C14.88 8.47205 13.584 9.52805 13.056 10.536H13.008V8.78405H9.19202V21.6H13.176V15.24C13.176 13.56 13.488 11.952 15.552 11.952C17.592 11.952 17.616 13.848 17.616 15.336V21.576H21.6V21.6Z" fill="#272725"/>
<path d="M2.71204 8.784H6.69604V21.6H2.71204V8.784Z" fill="#272725"/>
<path d="M4.70402 2.40002C3.43202 2.40002 2.40002 3.43202 2.40002 4.70402C2.40002 5.97602 3.43202 7.03202 4.70402 7.03202C5.97602 7.03202 7.00802 5.97602 7.00802 4.70402C7.00802 3.43202 5.97602 2.40002 4.70402 2.40002Z" fill="#272725"/>
</svg>
