<svg width="40" height="40" viewBox="0 0 40 40" fill="none" xmlns="http://www.w3.org/2000/svg">
<g clip-path="url(#clip0_450_21471)">
<path d="M20 40C31.0457 40 40 31.0457 40 20C40 8.95431 31.0457 0 20 0C8.95431 0 0 8.95431 0 20C0 31.0457 8.95431 40 20 40Z" fill="#0B69C7"/>
<path d="M15.5266 12.7289C15.5272 13.2694 15.3673 13.7979 15.0674 14.2475C14.7674 14.6971 14.3408 15.0477 13.8416 15.2547C13.3424 15.4618 12.7929 15.5161 12.2628 15.4108C11.7327 15.3055 11.2457 15.0453 10.8635 14.6631C10.4814 14.2809 10.2212 13.794 10.1158 13.2638C10.0105 12.7337 10.0648 12.1843 10.2719 11.685C10.479 11.1858 10.8295 10.7592 11.2791 10.4593C11.7287 10.1593 12.2572 9.99948 12.7977 10C13.5212 10.0007 14.2149 10.2884 14.7266 10.8001C15.2382 11.3117 15.5259 12.0054 15.5266 12.7289Z" fill="white"/>
<path d="M14.2346 16.5972H11.3609C10.9874 16.5972 10.6846 16.9 10.6846 17.2735V29.3235C10.6846 29.697 10.9874 29.9998 11.3609 29.9998H14.2346C14.6081 29.9998 14.9109 29.697 14.9109 29.3235V17.2735C14.9109 16.9 14.6081 16.5972 14.2346 16.5972Z" fill="white"/>
<path d="M29.9345 23.5446V29.3789C29.9345 29.5436 29.8691 29.7015 29.7526 29.818C29.6362 29.9345 29.4782 29.9999 29.3135 29.9999H26.2293C26.0646 29.9999 25.9066 29.9345 25.7901 29.818C25.6737 29.7015 25.6082 29.5436 25.6082 29.3789V23.7262C25.6082 22.8815 25.853 20.042 23.403 20.042C21.503 20.042 21.1161 21.9946 21.0345 22.871V29.392C21.0311 29.5535 20.9649 29.7074 20.8499 29.8208C20.735 29.9343 20.5803 29.9986 20.4187 29.9999H17.4345C17.3529 30.0003 17.272 29.9844 17.1965 29.9533C17.121 29.9223 17.0523 29.8765 16.9946 29.8188C16.9369 29.761 16.8911 29.6924 16.86 29.6169C16.829 29.5414 16.8131 29.4605 16.8135 29.3789V17.221C16.8131 17.1392 16.8289 17.0581 16.86 16.9825C16.8911 16.9068 16.9367 16.8381 16.9945 16.7801C17.0522 16.7222 17.1207 16.6762 17.1963 16.6448C17.2718 16.6134 17.3528 16.5973 17.4345 16.5973H20.4187C20.5015 16.5959 20.5838 16.611 20.6607 16.6417C20.7375 16.6724 20.8075 16.7181 20.8666 16.7762C20.9256 16.8342 20.9725 16.9035 21.0045 16.9798C21.0365 17.0562 21.053 17.1382 21.053 17.221V18.2736C21.7582 17.221 22.8056 16.3999 25.0345 16.3999C29.9635 16.3973 29.9345 21.0104 29.9345 23.5446Z" fill="white"/>
</g>
<defs>
<clipPath id="clip0_450_21471">
<rect width="40" height="40" fill="white"/>
</clipPath>
</defs>
</svg>
