<svg width="24" height="25" viewBox="0 0 24 25" fill="none" xmlns="http://www.w3.org/2000/svg">
<path d="M4 20.8457C3.45 20.8457 2.97917 20.6499 2.5875 20.2582C2.19583 19.8665 2 19.3957 2 18.8457V6.8457C2 6.2957 2.19583 5.82487 2.5875 5.4332C2.97917 5.04154 3.45 4.8457 4 4.8457H20C20.55 4.8457 21.0208 5.04154 21.4125 5.4332C21.8042 5.82487 22 6.2957 22 6.8457V18.8457C22 19.3957 21.8042 19.8665 21.4125 20.2582C21.0208 20.6499 20.55 20.8457 20 20.8457H4ZM12 13.8457L20 8.8457V6.8457L12 11.8457L4 6.8457V8.8457L12 13.8457Z" fill="white"/>
</svg>
