<svg width="190" height="80" viewBox="0 0 190 80" fill="none" xmlns="http://www.w3.org/2000/svg">
<g clip-path="url(#clip0_450_21503)">
<path d="M70.9689 48.7354C68.0766 48.758 65.2283 48.027 62.7043 46.6144C60.2211 45.2313 58.1557 43.2057 56.7245 40.7499C55.2351 38.1774 54.4712 35.2492 54.5142 32.277C54.4755 29.3182 55.2393 26.4042 56.7245 23.8449C58.1568 21.391 60.222 19.3668 62.7043 17.9842C65.2422 16.5974 68.088 15.8706 70.98 15.8706C73.8721 15.8706 76.7179 16.5974 79.2558 17.9842C81.7322 19.3673 83.7892 21.3934 85.2096 23.8487C86.6776 26.4125 87.4319 29.3228 87.3938 32.277C87.4357 35.2457 86.6815 38.1714 85.2096 40.7499C83.7899 43.2057 81.7328 45.232 79.2558 46.6144C76.7249 48.0298 73.8686 48.7608 70.9689 48.7354ZM70.9689 22.5872C69.3349 22.5547 67.7217 22.958 66.2952 23.7556C64.9461 24.542 63.8568 25.7062 63.162 27.1046C62.3737 28.7166 61.9832 30.4941 62.0234 32.2881C61.9845 34.0904 62.3748 35.876 63.162 37.4977C63.8574 38.9085 64.947 40.0873 66.2989 40.8913C67.7211 41.6983 69.334 42.1083 70.9689 42.0784C72.5946 42.1103 74.1984 41.7 75.6091 40.8913C76.9521 40.0821 78.0344 38.9042 78.7274 37.4977C79.5146 35.876 79.9049 34.0904 79.866 32.2881C79.9062 30.4941 79.5158 28.7166 78.7274 27.1046C78.0372 25.709 76.9548 24.5451 75.6128 23.7556C74.1976 22.9568 72.5936 22.5532 70.9689 22.5872Z" fill="white"/>
<path d="M70.9688 16.436C73.7716 16.4043 76.5337 17.1073 78.9803 18.4751C81.3658 19.811 83.3448 21.7682 84.7071 24.1387C86.1332 26.6137 86.8647 29.4279 86.8244 32.2842C86.8699 35.153 86.1411 37.9811 84.7145 40.4706C83.3478 42.8444 81.3603 44.801 78.9654 46.1304C76.5129 47.4739 73.7615 48.1782 70.965 48.1782C68.1686 48.1782 65.4172 47.4739 62.9647 46.1304C60.5716 44.7964 58.5818 42.8427 57.2044 40.4743C55.764 37.9895 55.0269 35.1596 55.0722 32.2879C55.0294 29.4282 55.7665 26.6109 57.2044 24.1387C58.5838 21.7661 60.5777 19.8095 62.9758 18.4751C65.4176 17.1122 68.1725 16.4094 70.9688 16.436ZM70.9688 42.6288C72.6955 42.6631 74.3989 42.2257 75.8955 41.3636C77.3385 40.5061 78.5019 39.2484 79.2445 37.743C80.0736 36.045 80.4845 34.1733 80.4427 32.2842C80.4858 30.4008 80.0749 28.5348 79.2445 26.8439C78.4999 25.3524 77.3359 24.1108 75.8955 23.2716C74.3949 22.4219 72.6929 21.9925 70.9688 22.0288C69.2366 21.9944 67.5267 22.4235 66.016 23.2716C64.5745 24.1095 63.4102 25.3514 62.667 26.8439C61.8384 28.5355 61.4275 30.401 61.4688 32.2842C61.4295 34.1731 61.8402 36.0442 62.667 37.743C63.4075 39.2499 64.5713 40.5081 66.016 41.3636C67.5227 42.2242 69.234 42.6613 70.9688 42.6288ZM70.9688 15.3196C67.9809 15.2949 65.0379 16.0476 62.4288 17.5039C59.8607 18.9358 57.7237 21.0304 56.2406 23.5693C54.707 26.215 53.9175 29.2263 53.9559 32.2842C53.9146 35.3529 54.7041 38.3758 56.2406 41.0325C57.7236 43.5724 59.8606 45.6682 62.4288 47.1016C65.0464 48.5347 67.9827 49.2858 70.9669 49.2858C73.9511 49.2858 76.8874 48.5347 79.505 47.1016C82.0713 45.6734 84.2022 43.5759 85.6708 41.0325C87.1976 38.3724 87.9815 35.351 87.9407 32.2842C87.9812 29.2313 87.1998 26.2238 85.6783 23.5768C84.2148 21.0374 82.0938 18.9395 79.5385 17.5039C76.9242 16.0437 73.9742 15.2908 70.9799 15.3196H70.9688ZM70.9688 41.5125C69.4327 41.5409 67.9173 41.1553 66.5816 40.3962C65.3189 39.6509 64.3032 38.5511 63.6605 37.2332C62.914 35.6909 62.5442 33.9935 62.5814 32.2804C62.5409 30.5758 62.9096 28.8864 63.6568 27.3537C64.2994 26.0486 65.3146 24.9634 66.5741 24.2354C67.9163 23.488 69.4329 23.1105 70.9688 23.1414C72.4949 23.1091 74.0019 23.4855 75.3336 24.2317C76.5852 24.9654 77.5933 26.0512 78.2324 27.3537C78.9795 28.8864 79.3483 30.5758 79.3078 32.2804C79.345 33.9935 78.9751 35.6909 78.2286 37.2332C77.5909 38.5494 76.5819 39.6502 75.3262 40.3999C74.0015 41.1593 72.4955 41.5452 70.9688 41.5162V41.5125Z" fill="white"/>
<path d="M111.421 48.4262L98.2073 28.4551V48.4262H90.873V16.2759H97.9506L111.164 36.288V16.2759H118.495V48.4262H111.421Z" fill="white"/>
<path d="M117.937 16.8453V47.8793H111.722L97.6492 26.6021V47.8682H91.4349V16.8453H97.6492L111.722 38.1561V16.8453H117.937ZM119.053 15.729H110.606V34.4387L98.5795 16.2202L98.252 15.729H90.3186V48.9957H98.7655V30.312L110.792 48.4747L111.123 48.9771H119.053V15.729Z" fill="white"/>
<path d="M123.507 48.4262V16.2759H142.604V22.4529H130.838V29.1062H141.272V35.1493H130.838V42.2492H142.604V48.4262H123.507Z" fill="white"/>
<path d="M142.046 16.8453V21.906H130.28V29.6645H140.699V34.5913H130.28V42.8075H142.046V47.8682H124.065V16.8453H142.046ZM143.162 15.729H122.949V48.9957H143.162V41.7023H131.396V35.7076H141.815V28.5482H131.396V23.0112H143.162V15.729Z" fill="white"/>
<path d="M161.299 16.3208H153.968V48.4265H161.299V16.3208Z" fill="#FFCE00"/>
<path d="M160.744 16.879V47.8684H154.548V16.879H160.763M161.879 15.7627H153.432V48.9847H161.879V15.7627Z" fill="#FFCE00"/>
<path d="M172.927 48.4265V22.4532H164.67V16.3208H188.515V22.4532H180.258V48.4265H172.927Z" fill="#FFCE00"/>
<path d="M187.957 16.879V21.8951H179.7V47.8684H173.485V21.8951H165.228V16.879H187.957ZM189.073 15.7627H164.112V23.0114H172.369V48.9847H180.816V23.0114H189.073V15.7627Z" fill="#FFCE00"/>
<path d="M102.289 70.1203C101.07 70.1246 99.8555 69.9555 98.6835 69.618C97.6846 69.357 96.7423 68.9143 95.9038 68.3119L97.1318 65.588C97.8553 66.0989 98.6536 66.4943 99.4984 66.7602C100.398 67.0615 101.34 67.2161 102.289 67.2179C102.874 67.2357 103.458 67.1603 104.02 66.9946C104.391 66.8883 104.726 66.6839 104.991 66.403C105.197 66.1643 105.308 65.8585 105.303 65.5434C105.309 65.3502 105.268 65.1584 105.182 64.9851C105.096 64.8118 104.969 64.6623 104.812 64.5499C104.416 64.2721 103.974 64.0679 103.506 63.947C102.963 63.7907 102.371 63.6419 101.731 63.5005C101.091 63.3591 100.447 63.1879 99.7998 62.987C99.173 62.7953 98.5728 62.5253 98.0137 62.1832C97.4799 61.8578 97.0349 61.4053 96.7187 60.866C96.3784 60.2404 96.2126 59.5348 96.2387 58.8231C96.2312 57.9556 96.4797 57.1052 96.9532 56.3783C97.4912 55.5906 98.2479 54.9775 99.13 54.6145C100.294 54.1396 101.546 53.9151 102.803 53.9559C103.785 53.9607 104.764 54.0857 105.716 54.328C106.603 54.5357 107.45 54.8823 108.228 55.355L107.089 58.0789C106.41 57.6852 105.682 57.3813 104.924 57.1746C104.226 56.9801 103.505 56.8787 102.78 56.8732C102.198 56.8539 101.617 56.9332 101.061 57.1076C100.69 57.2227 100.36 57.4439 100.112 57.744C99.9156 58 99.8096 58.3141 99.811 58.637C99.8056 58.8317 99.8475 59.0248 99.933 59.1998C100.019 59.3747 100.145 59.5264 100.302 59.6417C100.69 59.923 101.13 60.1242 101.597 60.2334C102.133 60.3748 102.728 60.5162 103.383 60.6576C104.039 60.7993 104.688 60.9744 105.326 61.1823C105.941 61.3797 106.533 61.6455 107.089 61.9748C107.666 62.3088 108.139 62.7947 108.458 63.3793C108.777 63.964 108.929 64.6251 108.898 65.2904C108.904 66.1488 108.651 66.989 108.172 67.7016C107.621 68.4861 106.859 69.0978 105.973 69.4654C104.805 69.9421 103.55 70.1653 102.289 70.1203Z" fill="white"/>
<path d="M116.623 69.8528V57.1712H111.622V54.2241H125.241V57.1712H120.24V69.8528H116.623Z" fill="white"/>
<path d="M136.784 70.1206C135.618 70.133 134.46 69.9286 133.368 69.5178C132.358 69.1358 131.432 68.5593 130.644 67.821C129.875 67.0981 129.263 66.2239 128.847 65.2534C127.999 63.1902 127.999 60.8755 128.847 58.8122C129.265 57.8461 129.877 56.976 130.644 56.2558C131.43 55.5193 132.351 54.943 133.357 54.559C134.444 54.1475 135.599 53.9431 136.762 53.9562C137.923 53.9431 139.077 54.1437 140.167 54.5478C141.173 54.925 142.095 55.4979 142.879 56.2335C143.649 56.9564 144.261 57.8305 144.677 58.801C145.525 60.872 145.525 63.1936 144.677 65.2646C144.263 66.2395 143.651 67.1177 142.879 67.8433C142.095 68.5789 141.173 69.1518 140.167 69.529C139.085 69.9318 137.938 70.1324 136.784 70.1206ZM136.762 67.0805C137.424 67.0866 138.081 66.9601 138.693 66.7084C139.275 66.4664 139.803 66.1096 140.245 65.659C140.692 65.2042 141.045 64.6655 141.283 64.0738C141.774 62.7716 141.774 61.335 141.283 60.0327C141.045 59.4411 140.692 58.9023 140.245 58.4475C139.803 57.997 139.275 57.6401 138.693 57.3982C138.081 57.1465 137.424 57.02 136.762 57.0261C136.096 57.0208 135.436 57.1472 134.819 57.3982C134.235 57.6364 133.706 57.9938 133.268 58.4475C132.826 58.9049 132.478 59.4431 132.241 60.0327C131.75 61.335 131.75 62.7716 132.241 64.0738C132.478 64.6634 132.826 65.2017 133.268 65.659C133.709 66.1137 134.24 66.4711 134.827 66.7084C135.441 66.9584 136.099 67.0848 136.762 67.0805Z" fill="white"/>
<path d="M150.269 69.8526V54.2239H157.034C158.274 54.193 159.507 54.4251 160.651 54.9049C161.607 55.3119 162.423 55.9913 162.995 56.8585C163.536 57.7729 163.822 58.8158 163.822 59.8781C163.822 60.9405 163.536 61.9834 162.995 62.8978C162.423 63.7571 161.606 64.4257 160.651 64.8179C159.503 65.2827 158.272 65.5069 157.034 65.4765H152.256L153.909 63.9137V69.8674L150.269 69.8526ZM153.909 64.3156L152.256 62.615H156.833C157.935 62.615 158.768 62.3769 159.334 61.9006C159.619 61.6523 159.844 61.3423 159.991 60.9941C160.138 60.6458 160.203 60.2686 160.182 59.8912C160.204 59.5153 160.139 59.1394 159.992 58.7929C159.845 58.4463 159.619 58.1383 159.334 57.8929C158.768 57.4241 157.935 57.1896 156.833 57.1896H152.256L153.909 55.4705V64.3156ZM160.234 69.8526L156.297 64.1816H160.182L164.112 69.8526H160.234Z" fill="white"/>
<path d="M172.506 66.9503H181.013V69.8528H168.912V54.2241H180.723V57.1266H172.506V66.9503ZM172.239 60.4979H179.763V63.3334H172.239V60.4979Z" fill="white"/>
<mask id="mask0_450_21503" style="mask-type:luminance" maskUnits="userSpaceOnUse" x="-5" y="-4" width="90" height="91">
<path d="M64.3825 49.8963C59.8884 48.2303 56.1982 44.9141 54.0633 40.6229C51.9284 36.3317 51.5093 31.3882 52.8913 26.7988C54.2732 22.2095 57.3524 18.3193 61.5019 15.9205C65.6513 13.5217 70.559 12.7946 75.2258 13.8872C70.1165 7.27647 63.2307 2.25703 55.3737 -0.584206C32.3177 -8.95669 6.79467 3.07736 -1.6299 26.2636C-10.0545 49.4497 1.80467 75.0621 24.8643 83.4532C47.924 91.8443 73.4285 79.7879 81.8679 56.5868C83.2155 52.8806 84.0712 49.0136 84.4132 45.0849C81.9107 47.7579 78.6794 49.6383 75.1191 50.4935C71.5588 51.3487 67.8259 51.141 64.3825 49.8963Z" fill="white"/>
</mask>
<g mask="url(#mask0_450_21503)">
<path d="M7.93717 50.2906C8.2632 50.6208 8.50972 51.021 8.65801 51.4607C8.8063 51.9005 8.85248 52.3682 8.79302 52.8284C11.7824 54.7597 14.9544 56.3924 18.2632 57.7031C15.1888 54.8268 12.4432 51.6182 10.0768 48.1361C9.35491 48.8282 8.6479 49.5501 7.95577 50.2906H7.93717ZM38.8893 55.6713C38.4396 55.8278 37.9549 55.8549 37.4905 55.7497C37.0261 55.6444 36.6006 55.411 36.2622 55.076C33.4738 56.8368 30.5336 58.3449 27.4767 59.5822C27.5393 59.8725 27.5779 60.1675 27.592 60.4641C32.2751 61.4069 37.0611 61.7347 41.829 61.439C41.8786 60.7908 42.0925 60.1659 42.4504 59.6231C41.1877 58.3505 39.9982 57.0333 38.8819 55.6713H38.8893ZM29.5568 39.2464C29.0785 39.2952 28.5952 39.2419 28.139 39.0901C25.6932 44.3784 24.109 50.024 23.4467 55.8127C24.1858 55.9391 24.8873 56.2288 25.5002 56.6608C26.113 57.0928 26.6217 57.656 26.9892 58.3096C29.9765 57.0972 32.8495 55.6203 35.5738 53.8964C35.4815 53.536 35.469 53.1598 35.5372 52.7941C35.6053 52.4285 35.7524 52.082 35.9682 51.7791C33.3091 47.8898 31.1547 43.6785 29.5568 39.2464ZM75.8733 50.8041L74.4668 49.7994C67.2782 55.8441 58.6796 59.9757 49.4684 61.8112C49.4557 62.4343 49.2909 63.0449 48.9884 63.5898C51.4566 65.4897 54.0834 67.1741 56.8399 68.6245C57.2904 68.1155 57.8415 67.7055 58.4586 67.4205C59.0757 67.1355 59.7452 66.9816 60.4247 66.9687C61.1043 66.9557 61.7792 67.084 62.4066 67.3453C63.0341 67.6066 63.6005 67.9953 64.07 68.4868C69.6325 63.8588 73.7327 57.7162 75.8733 50.8041ZM66.5929 32.6749C64.0068 35.3243 59.9842 31.3949 62.5667 28.7454C65.1491 26.096 69.1754 30.0255 66.5929 32.6749ZM44.5193 43.6968C44.9218 43.0635 45.5445 42.6017 46.2674 42.4003C46.9902 42.199 47.762 42.2725 48.4339 42.6065C55.2099 34.4918 59.4768 24.5798 60.7136 14.0806C59.9525 13.9717 59.2347 13.6599 58.6356 13.1781C58.0365 12.6962 57.5782 12.0619 57.3088 11.3418C46.5539 15.7496 37.4509 23.4172 31.2796 33.2666C31.8829 33.7436 32.3054 34.4122 32.4772 35.1619C32.6491 35.9115 32.56 36.6974 32.2248 37.3895C36.0381 40.0061 40.1697 42.1257 44.5193 43.6968ZM44.5193 46.8412C44.1763 46.2848 44.0259 45.6309 44.0914 44.9806C39.5929 43.3632 35.3209 41.1747 31.3801 38.4687C31.215 38.6094 31.0368 38.734 30.848 38.8408C32.3935 43.1101 34.4674 47.1691 37.0213 50.9232C37.4201 50.7508 37.8562 50.6829 38.2885 50.7259C38.7208 50.7688 39.1351 50.9213 39.4921 51.1688C41.2514 49.8291 42.9277 48.3839 44.5119 46.8412H44.5193ZM49.2154 47.3584C48.7355 47.8494 48.1019 48.1612 47.42 48.2418C46.7382 48.3224 46.0493 48.1669 45.4682 47.8012C43.8578 49.3685 42.1555 50.8384 40.3703 52.2033C40.5655 52.6399 40.6341 53.1225 40.5683 53.5962C40.5025 54.0699 40.305 54.5156 39.9982 54.8825C41.055 56.17 42.1825 57.419 43.3807 58.6296C43.8674 58.2911 44.4251 58.0684 45.0111 57.9787C45.5972 57.889 46.196 57.9346 46.7617 58.112C47.3274 58.2894 47.8449 58.594 48.2748 59.0023C48.7046 59.4107 49.0352 59.912 49.2414 60.4678C58.2703 58.66 66.6925 54.5898 73.7188 48.6384C73.553 48.2304 73.455 47.798 73.4286 47.3584C65.566 48.8309 57.4796 48.6076 49.7103 46.7035C49.5757 46.9431 49.4092 47.1635 49.2154 47.3584ZM20.5629 24.4736C20.8317 24.6203 21.0675 24.8208 21.2555 25.0625C21.4436 25.3042 21.5799 25.5821 21.656 25.8787C21.7321 26.1754 21.7463 26.4846 21.6978 26.787C21.6493 27.0894 21.5391 27.3785 21.3741 27.6365C23.1193 29.6814 25.0122 31.5955 27.0376 33.3633C27.2353 33.1902 27.4541 33.0426 27.6888 32.9242C25.8949 25.1826 25.7579 17.1493 27.2869 9.35104L27.0376 9.28406C24.1112 13.99 21.9227 19.1163 20.548 24.4848L20.5629 24.4736ZM11.0741 47.1723C13.4824 50.7519 16.3011 54.0376 19.4726 56.9626C19.7797 56.6956 20.1199 56.4692 20.4847 56.289C18.9145 51.6879 17.9489 46.9021 17.612 42.0521C15.2992 43.5945 13.1085 45.3125 11.0592 47.1909L11.0741 47.1723ZM18.933 41.1888C19.2157 46.1732 20.1772 51.0957 21.7908 55.8202L22.0922 55.7718C22.7664 49.7469 24.4152 43.8716 26.9743 38.3756C26.6648 38.0867 26.4123 37.742 26.2301 37.3598C23.6991 38.4559 21.2548 39.7421 18.9181 41.2074L18.933 41.1888ZM26.2152 34.4201C24.1155 32.5837 22.1552 30.5936 20.3508 28.4663C20.1327 28.5562 19.9014 28.6103 19.6661 28.6264C19.0318 32.2543 18.765 35.937 18.8698 39.6185C21.1189 38.2532 23.4616 37.0483 25.8803 36.0127C25.8577 35.4699 25.9676 34.9297 26.2003 34.4387L26.2152 34.4201ZM40.5675 68.9892C41.5921 67.6223 42.5397 66.2231 43.4104 64.7918C42.7141 64.3038 42.2059 63.592 41.9704 62.7749C37.1113 63.0794 32.2332 62.753 27.4581 61.8037C27.3726 62.1505 27.2478 62.4863 27.086 62.8047C31.2709 65.477 35.8018 67.564 40.5526 69.0078L40.5675 68.9892ZM35.9906 74.3736L39.6707 70.1613C34.9656 68.6898 30.4761 66.6015 26.3194 63.9508L25.6422 64.5685C27.5019 67.9327 29.7121 71.0909 32.236 73.9903C32.8239 73.6558 33.5016 73.5129 34.1745 73.5816C34.8475 73.6503 35.4823 73.9272 35.9906 74.3736ZM41.055 70.5781L36.8092 75.4676C36.9718 75.819 37.0677 76.1975 37.092 76.5839C43.5174 77.2575 50.0065 76.2162 55.8985 73.5661C55.7977 73.2932 55.7217 73.0117 55.6715 72.7252C50.7261 72.6554 45.8115 71.9335 41.055 70.5781ZM38.9451 35.3467C36.5264 34.9746 37.1143 31.2758 39.5293 31.6628C41.9443 32.0498 41.375 35.7337 38.96 35.3467H38.9451ZM4.43189 40.2474C4.42862 43.315 4.81371 46.3708 5.57799 49.3417C5.9885 49.3179 6.39941 49.3813 6.78362 49.5278C7.59482 48.6496 8.43207 47.7975 9.2842 46.9826C7.83828 44.743 6.55493 42.4027 5.44403 39.9794C5.11973 40.1124 4.77948 40.2024 4.43189 40.2474ZM11.7401 18.3598C8.59827 22.5885 6.39009 27.4361 5.26169 32.5819C5.89651 32.8219 6.45996 33.2193 6.89922 33.7367C7.33848 34.254 7.63915 34.8745 7.77304 35.5398C7.90692 36.2052 7.86965 36.8936 7.6647 37.5407C7.45975 38.1877 7.09384 38.772 6.60129 39.2389C7.66914 41.5911 8.90527 43.8631 10.3001 46.0374C12.552 43.9916 14.9677 42.1335 17.5227 40.4818C17.3515 36.4148 17.621 32.3413 18.3265 28.3324C18.0668 28.1708 17.843 27.9576 17.6691 27.706C17.4953 27.4543 17.3749 27.1697 17.3156 26.8696C17.2563 26.5696 17.2593 26.2605 17.3243 25.9616C17.3894 25.6628 17.5152 25.3805 17.6939 25.1322C16.1612 23.0214 14.7785 20.8056 13.556 18.5012C12.9507 18.643 12.3163 18.5936 11.7401 18.3598ZM24.764 7.56863C21.3546 9.25802 18.2287 11.4675 15.4984 14.1178C15.8394 14.732 15.9557 15.4458 15.8274 16.1364C15.699 16.8271 15.334 17.4515 14.7952 17.9021C15.9754 20.1351 17.3108 22.2824 18.7916 24.3285C18.926 24.2845 19.0643 24.2533 19.2047 24.2354C20.5992 18.7445 22.8227 13.4983 25.7985 8.67752L24.764 7.56863ZM57.6585 7.80306C54.5511 6.22006 51.2367 5.08145 47.8125 4.42057C47.1836 9.33243 39.7898 8.73705 39.961 3.77682C37.4123 3.84857 34.8781 4.18655 32.3997 4.78524C32.522 5.89611 32.1991 7.01019 31.5017 7.88343C30.8042 8.75666 29.789 9.31785 28.6786 9.44406C27.162 17.0922 27.2889 24.9754 29.0507 32.5707C29.4036 32.5482 29.7578 32.5821 30.1001 32.6712C36.4702 22.4373 45.9242 14.4895 57.1004 9.97246C57.0706 9.21041 57.2577 8.45556 57.6399 7.79561L57.6585 7.80306ZM77.3804 43.0791C77.6869 39.1294 77.345 35.156 76.3682 31.3167C72.1783 32.0386 70.0201 26.3342 73.7151 24.1387C71.5081 19.6567 68.4053 15.6749 64.5984 12.4396C63.9927 13.2686 63.0975 13.8397 62.0904 14.0396C60.8574 24.8777 56.4758 35.1171 49.487 43.4922C49.8934 44.0353 50.1021 44.7008 50.0787 45.3788C57.7891 47.2633 65.8166 47.4524 73.6072 45.9332C73.8573 45.1241 74.354 44.4133 75.0278 43.9002C75.7017 43.3872 76.519 43.0975 77.3655 43.0717L77.3804 43.0791ZM25.8952 73.5438C27.5327 74.2878 29.223 74.9097 30.9522 75.4043C31.0313 75.2347 31.126 75.0728 31.235 74.9206C28.6382 71.9445 26.3643 68.7014 24.4514 65.2457C24.0485 65.4011 23.6269 65.5024 23.1974 65.5471C23.3041 67.2837 23.4963 69.0202 23.7742 70.7567C24.097 70.7992 24.4081 70.9052 24.6898 71.0686C24.9714 71.232 25.2179 71.4495 25.4151 71.7086C25.6122 71.9677 25.7562 72.2632 25.8386 72.5782C25.921 72.8932 25.9402 73.2213 25.8952 73.5438ZM13.1728 63.9731C15.653 66.8882 18.5778 69.3936 21.8392 71.3967C22.0145 71.2263 22.2154 71.0844 22.4346 70.9762C22.1419 69.1579 21.9397 67.3283 21.828 65.4876C21.0038 65.3318 20.2317 64.9724 19.5818 64.4421C18.9319 63.9118 18.4249 63.2274 18.1069 62.4512C16.5664 62.7786 15.0159 63.0428 13.4556 63.2438C13.4063 63.502 13.3105 63.7492 13.1728 63.9731ZM9.19118 58.2835C9.65756 59.1047 10.1537 59.906 10.6796 60.6874C11.191 60.5439 11.7367 60.5858 12.2202 60.8057C12.7036 61.0257 13.0938 61.4095 13.3216 61.8893C14.81 61.6958 16.2985 61.4415 17.7869 61.1265C17.7209 60.4351 17.8021 59.7376 18.0251 59.0799C14.6192 57.7519 11.3524 56.0917 8.27207 54.1234L7.48691 54.9122C7.9965 56.0646 8.56534 57.1899 9.19118 58.2835ZM18.2558 70.6078C15.9993 68.9191 13.9353 66.9874 12.1011 64.8476C10.1326 65.5918 8.26834 63.2326 9.54096 61.4986C8.23967 59.5872 7.11854 57.5592 6.19197 55.4406C2.91368 55.9169 1.29872 51.3995 4.21606 49.7325C3.41466 46.6119 3.01328 43.4022 3.02159 40.1804C-1.48839 39.1496 -0.777657 32.4219 3.8514 32.3661C4.98937 26.9979 7.28679 21.9433 10.5829 17.5561C8.32416 14.9513 11.6583 11.2041 14.5124 13.0907C17.355 10.3233 20.6163 8.02143 24.1761 6.26996C23.0039 1.43253 29.8619 -0.95642 31.9904 3.47169C34.6859 2.81084 37.4465 2.45141 40.2215 2.40002C41.669 -1.11271 46.8636 -0.655011 47.712 3.01028C51.4854 3.70942 55.1344 4.96339 58.5404 6.73138C61.7666 4.06335 66.485 7.18535 65.2012 11.1967C69.2974 14.6181 72.6247 18.866 74.9654 23.6624C79.2 22.8772 81.3843 28.6822 77.626 30.8553C78.6707 34.8998 79.0341 39.0901 78.7014 43.254C83.0923 44.6085 81.9871 51.4107 77.2129 51.139C75.0522 58.4057 70.7507 64.8521 64.87 69.6366C67.3483 74.4741 61.0745 79.278 57.0781 75.3783C56.8886 75.1929 56.7143 74.9926 56.5571 74.7792C50.4025 77.5772 43.6086 78.6683 36.8873 77.9384C35.6073 81.2874 30.5615 80.305 30.6247 76.7179C28.7973 76.2055 27.0111 75.5562 25.2812 74.7755C24.9168 75.1624 24.4354 75.419 23.911 75.5058C23.3866 75.5925 22.8482 75.5047 22.3786 75.2557C21.909 75.0067 21.5341 74.6104 21.3116 74.1277C21.0891 73.645 21.0313 73.1025 21.1471 72.5837C20.1759 71.9809 19.2047 71.3186 18.2558 70.6078ZM39.213 16.1346C36.1469 15.2862 37.4418 10.6162 40.5043 11.4609C43.5667 12.3056 42.2755 16.9793 39.213 16.1346ZM11.2862 29.9399C9.42561 29.4227 10.2033 26.5649 12.075 27.0821C13.9467 27.5993 13.1728 30.4609 11.2862 29.9399ZM53.5765 55.8462C50.994 55.1355 52.0881 51.1986 54.6631 51.913C57.2381 52.6275 56.1664 56.5607 53.5877 55.8462H53.5765ZM44.6235 65.3946C43.7925 66.759 42.8969 68.0973 41.9369 69.4096C46.4011 70.6326 51.0023 71.2853 55.6305 71.3521C55.6872 70.8024 55.837 70.2663 56.0734 69.7669C53.2848 68.2865 50.6259 66.5737 48.1251 64.6466C47.6504 65.05 47.0831 65.3294 46.474 65.46C45.8649 65.5905 45.233 65.568 44.6347 65.3946H44.6235Z" fill="url(#paint0_linear_450_21503)"/>
</g>
</g>
<defs>
<linearGradient id="paint0_linear_450_21503" x1="4.30909" y1="59.2138" x2="79.0028" y2="21.5153" gradientUnits="userSpaceOnUse">
<stop stop-color="#FFC935"/>
<stop offset="0.27" stop-color="#FFC031"/>
<stop offset="0.7" stop-color="#FFA827"/>
<stop offset="1" stop-color="#FF931E"/>
</linearGradient>
<clipPath id="clip0_450_21503">
<rect width="189.073" height="80" fill="white"/>
</clipPath>
</defs>
</svg>
