<svg width="134" height="56" viewBox="0 0 134 56" fill="none" xmlns="http://www.w3.org/2000/svg">
<g clip-path="url(#clip0_392_56)">
<path d="M50.5027 34.1147C48.4781 34.1305 46.4842 33.6188 44.7175 32.63C42.9792 31.6618 41.5334 30.2439 40.5316 28.5249C39.489 26.7241 38.9543 24.6744 38.9844 22.5938C38.9573 20.5227 39.492 18.4829 40.5316 16.6914C41.5342 14.9736 42.9799 13.5567 44.7175 12.5889C46.494 11.6181 48.486 11.1093 50.5105 11.1093C52.5349 11.1093 54.527 11.6181 56.3035 12.5889C58.037 13.557 59.4769 14.9753 60.4711 16.694C61.4988 18.4887 62.0268 20.5259 62.0001 22.5938C62.0294 24.6719 61.5015 26.7199 60.4711 28.5249C59.4774 30.2439 58.0374 31.6623 56.3035 32.63C54.5318 33.6208 52.5325 34.1325 50.5027 34.1147ZM50.5027 15.811C49.3588 15.7882 48.2296 16.0706 47.2311 16.6289C46.2867 17.1793 45.5242 17.9943 45.0378 18.9732C44.486 20.1016 44.2127 21.3458 44.2408 22.6016C44.2136 23.8632 44.4868 25.1131 45.0378 26.2483C45.5246 27.2359 46.2874 28.0611 47.2337 28.6238C48.2292 29.1887 49.3582 29.4757 50.5027 29.4548C51.6407 29.4771 52.7634 29.1899 53.7508 28.6238C54.6909 28.0574 55.4485 27.2328 55.9336 26.2483C56.4847 25.1131 56.7579 23.8632 56.7307 22.6016C56.7588 21.3458 56.4855 20.1016 55.9336 18.9732C55.4505 17.9962 54.6928 17.1815 53.7534 16.6289C52.7628 16.0696 51.64 15.7872 50.5027 15.811Z" fill="white"/>
<path d="M50.5027 11.5053C52.4647 11.4831 54.3982 11.9752 56.1108 12.9327C57.7806 13.8678 59.166 15.2378 60.1196 16.8972C61.1179 18.6297 61.6299 20.5996 61.6017 22.599C61.6336 24.6072 61.1234 26.5869 60.1248 28.3295C59.1681 29.9912 57.7768 31.3608 56.1004 32.2914C54.3836 33.2318 52.4576 33.7248 50.5001 33.7248C48.5426 33.7248 46.6167 33.2318 44.8999 32.2914C43.2247 31.3576 41.8319 29.99 40.8677 28.3321C39.8594 26.5928 39.3435 24.6118 39.3752 22.6016C39.3452 20.5998 39.8612 18.6277 40.8677 16.8972C41.8333 15.2364 43.229 13.8668 44.9077 12.9327C46.6169 11.9787 48.5454 11.4867 50.5027 11.5053ZM50.5027 29.8403C51.7115 29.8643 52.9039 29.5581 53.9515 28.9547C54.9616 28.3544 55.7759 27.474 56.2958 26.4202C56.8762 25.2316 57.1637 23.9214 57.1345 22.599C57.1647 21.2807 56.877 19.9745 56.2958 18.7908C55.7745 17.7468 54.9598 16.8777 53.9515 16.2903C52.901 15.6954 51.7096 15.3949 50.5027 15.4203C49.2902 15.3962 48.0933 15.6966 47.0358 16.2903C46.0267 16.8767 45.2117 17.7461 44.6915 18.7908C44.1115 19.9749 43.8239 21.2808 43.8528 22.599C43.8252 23.9212 44.1127 25.2311 44.6915 26.4202C45.2099 27.475 46.0245 28.3558 47.0358 28.9547C48.0905 29.557 49.2884 29.863 50.5027 29.8403ZM50.5027 10.7239C48.4112 10.7065 46.3511 11.2334 44.5248 12.2529C42.7271 13.2552 41.2312 14.7214 40.1931 16.4986C39.1195 18.3506 38.5669 20.4585 38.5937 22.599C38.5648 24.7472 39.1175 26.8631 40.1931 28.7228C41.2311 30.5008 42.727 31.9679 44.5248 32.9712C46.3571 33.9744 48.4125 34.5002 50.5014 34.5002C52.5904 34.5002 54.6458 33.9744 56.4781 32.9712C58.2745 31.9714 59.7662 30.5032 60.7942 28.7228C61.8629 26.8608 62.4117 24.7458 62.3831 22.599C62.4114 20.462 61.8644 18.3568 60.7994 16.5038C59.775 14.7263 58.2903 13.2577 56.5015 12.2529C54.6716 11.2307 52.6066 10.7037 50.5106 10.7239H50.5027ZM50.5027 29.0588C49.4275 29.0787 48.3667 28.8088 47.4317 28.2774C46.5479 27.7558 45.8368 26.9858 45.387 26.0634C44.8644 24.9838 44.6055 23.7955 44.6316 22.5964C44.6032 21.4032 44.8614 20.2206 45.3844 19.1477C45.8342 18.2341 46.5449 17.4745 47.4265 16.9649C48.366 16.4417 49.4276 16.1774 50.5027 16.1991C51.571 16.1765 52.626 16.44 53.5581 16.9623C54.4343 17.4759 55.14 18.2359 55.5873 19.1477C56.1103 20.2206 56.3684 21.4032 56.34 22.5964C56.3661 23.7955 56.1072 24.9838 55.5847 26.0634C55.1382 26.9847 54.432 27.7552 53.5529 28.28C52.6256 28.8116 51.5714 29.0817 50.5027 29.0615V29.0588Z" fill="white"/>
<path d="M78.8192 33.8985L69.5697 19.9187V33.8985H64.4357V11.3933H69.3899L78.6395 25.4017V11.3933H83.7709V33.8985H78.8192Z" fill="white"/>
<path d="M83.3801 11.7918V33.5156H79.0301L69.1789 18.6215V33.5078H64.8289V11.7918H69.1789L79.0301 26.7093V11.7918H83.3801ZM84.1615 11.0104H78.2487V24.1072L69.8301 11.3542L69.6009 11.0104H64.0475V34.297H69.9603V21.2185L78.3789 33.9324L78.6108 34.284H84.1615V11.0104Z" fill="white"/>
<path d="M87.2795 33.8985V11.3933H100.647V15.7172H92.4109V20.3745H99.7147V24.6047H92.4109V29.5746H100.647V33.8985H87.2795Z" fill="white"/>
<path d="M100.256 11.7918V15.3343H92.0202V20.7652H99.3136V24.214H92.0202V29.9653H100.256V33.5078H87.6702V11.7918H100.256ZM101.038 11.0104H86.8888V34.297H101.038V29.1917H92.8016V24.9954H100.095V19.9838H92.8016V16.1079H101.038V11.0104Z" fill="white"/>
<path d="M113.734 11.4245H108.602V33.8985H113.734V11.4245Z" fill="#FFCE00"/>
<path d="M113.345 11.8152V33.5078H109.008V11.8152H113.358M114.14 11.0338H108.227V34.2892H114.14V11.0338Z" fill="#FFCE00"/>
<path d="M121.873 33.8985V15.7172H116.094V11.4245H132.785V15.7172H127.005V33.8985H121.873Z" fill="#FFCE00"/>
<path d="M132.394 11.8152V15.3265H126.614V33.5078H122.264V15.3265H116.484V11.8152H132.394ZM133.176 11.0338H115.703V16.1079H121.483V34.2892H127.396V16.1079H133.176V11.0338Z" fill="#FFCE00"/>
<path d="M72.4271 49.0843C71.5733 49.0873 70.7235 48.9689 69.903 48.7327C69.2038 48.55 68.5442 48.2401 67.9573 47.8184L68.8169 45.9117C69.3233 46.2693 69.8821 46.5461 70.4735 46.7322C71.1033 46.9431 71.7629 47.0513 72.4271 47.0526C72.8365 47.0651 73.2454 47.0123 73.6383 46.8963C73.898 46.8219 74.1329 46.6788 74.3181 46.4822C74.4623 46.3151 74.5401 46.101 74.5369 45.8804C74.5412 45.7452 74.5121 45.611 74.4521 45.4897C74.3921 45.3684 74.3032 45.2637 74.1931 45.185C73.9161 44.9906 73.6064 44.8476 73.2788 44.763C72.8985 44.6536 72.4844 44.5494 72.0363 44.4504C71.5883 44.3514 71.1377 44.2316 70.6845 44.091C70.2457 43.9568 69.8256 43.7678 69.4342 43.5283C69.0605 43.3006 68.7491 42.9838 68.5277 42.6063C68.2895 42.1683 68.1734 41.6744 68.1917 41.1762C68.1864 40.569 68.3604 39.9737 68.6918 39.4649C69.0684 38.9135 69.5981 38.4843 70.2156 38.2302C71.0307 37.8978 71.9067 37.7407 72.7865 37.7692C73.4744 37.7726 74.1594 37.86 74.8261 38.0297C75.4464 38.175 76.0398 38.4177 76.5843 38.7486L75.7872 40.6553C75.3113 40.3797 74.8018 40.167 74.2712 40.0223C73.7826 39.8861 73.2781 39.8152 72.7709 39.8113C72.3634 39.7978 71.9565 39.8533 71.5675 39.9754C71.3074 40.056 71.0765 40.2108 70.9033 40.4208C70.7655 40.6 70.6913 40.82 70.6923 41.046C70.6885 41.1823 70.7178 41.3174 70.7777 41.4399C70.8376 41.5624 70.9263 41.6685 71.0361 41.7493C71.3077 41.9462 71.6159 42.087 71.9426 42.1634C72.3177 42.2624 72.7344 42.3614 73.1929 42.4604C73.6521 42.5596 74.1059 42.6821 74.5526 42.8277C74.9836 42.9659 75.3977 43.152 75.7872 43.3825C76.1906 43.6163 76.522 43.9563 76.7452 44.3656C76.9684 44.7749 77.075 45.2376 77.0531 45.7033C77.0573 46.3042 76.8803 46.8924 76.5452 47.3912C76.1595 47.9404 75.6256 48.3686 75.0058 48.6259C74.1884 48.9595 73.3094 49.1158 72.4271 49.0843Z" fill="white"/>
<path d="M82.4606 48.8968V40.0197H78.9598V37.9567H88.4933V40.0197H84.9925V48.8968H82.4606Z" fill="white"/>
<path d="M96.5733 49.0843C95.7569 49.093 94.9461 48.9499 94.1821 48.6623C93.4749 48.3949 92.8272 47.9914 92.2754 47.4746C91.7367 46.9685 91.3084 46.3566 91.0173 45.6773C90.4234 44.233 90.4234 42.6127 91.0173 41.1684C91.3098 40.4922 91.738 39.8831 92.2754 39.3789C92.8252 38.8634 93.4701 38.46 94.1743 38.1912C94.9355 37.9032 95.7438 37.76 96.5576 37.7692C97.3708 37.7601 98.1786 37.9005 98.941 38.1833C99.6457 38.4474 100.291 38.8484 100.84 39.3633C101.379 39.8694 101.807 40.4812 102.098 41.1606C102.692 42.6103 102.692 44.2354 102.098 45.6851C101.808 46.3675 101.38 46.9823 100.84 47.4902C100.291 48.0051 99.6457 48.4061 98.941 48.6702C98.1838 48.9521 97.3812 49.0925 96.5733 49.0843ZM96.5576 46.9562C97.0211 46.9605 97.4808 46.8719 97.9095 46.6957C98.3173 46.5264 98.6867 46.2766 98.9957 45.9612C99.3087 45.6428 99.5557 45.2657 99.7224 44.8516C100.066 43.94 100.066 42.9344 99.7224 42.0228C99.5557 41.6086 99.3087 41.2315 98.9957 40.9131C98.6867 40.5978 98.3173 40.348 97.9095 40.1786C97.4808 40.0024 97.0211 39.9138 96.5576 39.9181C96.0917 39.9144 95.6296 40.0029 95.1979 40.1786C94.7888 40.3453 94.4189 40.5955 94.1117 40.9131C93.8029 41.2333 93.5588 41.6101 93.3928 42.0228C93.0491 42.9344 93.0491 43.94 93.3928 44.8516C93.5588 45.2643 93.8029 45.6411 94.1117 45.9612C94.4204 46.2794 94.7921 46.5296 95.2031 46.6957C95.6331 46.8707 96.0934 46.9592 96.5576 46.9562Z" fill="white"/>
<path d="M106.013 48.8968V37.9567H110.749C111.617 37.9351 112.48 38.0976 113.28 38.4334C113.95 38.7183 114.52 39.1939 114.921 39.8009C115.3 40.441 115.5 41.171 115.5 41.9147C115.5 42.6584 115.3 43.3884 114.921 44.0285C114.52 44.6299 113.949 45.098 113.28 45.3725C112.477 45.6979 111.615 45.8548 110.749 45.8336H107.404L108.561 44.7396V48.9072L106.013 48.8968ZM108.561 45.0209L107.404 43.8305H110.608C111.379 43.8305 111.962 43.6638 112.358 43.3304C112.558 43.1566 112.715 42.9396 112.818 42.6958C112.921 42.4521 112.967 42.188 112.952 41.9238C112.967 41.6607 112.922 41.3976 112.819 41.155C112.716 40.9124 112.558 40.6968 112.358 40.5251C111.962 40.1968 111.379 40.0327 110.608 40.0327H107.404L108.561 38.8293V45.0209ZM112.989 48.8968L110.233 44.9271H112.952L115.703 48.8968H112.989Z" fill="white"/>
<path d="M121.579 46.865H127.534V48.8968H119.063V37.9567H127.33V39.9884H121.579V46.865ZM121.392 42.3484H126.658V44.3332H121.392V42.3484Z" fill="white"/>
<mask id="mask0_392_56" style="mask-type:luminance" maskUnits="userSpaceOnUse" x="-3" y="-3" width="63" height="64">
<path d="M45.8923 34.9274C42.7464 33.7612 40.1633 31.4399 38.6689 28.436C37.1744 25.4322 36.881 21.9717 37.8484 18.7592C38.8158 15.5466 40.9712 12.8235 43.8758 11.1444C46.7805 9.4652 50.2159 8.9562 53.4826 9.72101C49.9061 5.09352 45.086 1.57991 39.5861 -0.408951C23.4469 -6.26969 5.58081 2.15414 -0.316397 18.3845C-6.2136 34.6148 2.08781 52.5435 18.2296 58.4172C34.3714 64.291 52.2245 55.8515 58.1321 39.6108C59.0754 37.0164 59.6744 34.3095 59.9137 31.5594C58.162 33.4305 55.9001 34.7468 53.4079 35.3454C50.9157 35.9441 48.3027 35.7987 45.8923 34.9274Z" fill="white"/>
</mask>
<g mask="url(#mask0_392_56)">
<path d="M6.38053 35.2035C6.60875 35.4347 6.78131 35.7148 6.88512 36.0226C6.98892 36.3304 7.02124 36.6578 6.97963 36.98C9.07219 38.3319 11.2926 39.4748 13.6088 40.3922C11.4567 38.3788 9.53477 36.1328 7.87827 33.6953C7.37295 34.1798 6.87804 34.6852 6.39355 35.2035H6.38053ZM28.047 38.97C27.7322 39.0795 27.393 39.0985 27.0679 39.0248C26.7428 38.9512 26.4449 38.7878 26.2081 38.5532C24.2562 39.7859 22.198 40.8415 20.0582 41.7076C20.102 41.9108 20.129 42.1173 20.1389 42.325C23.4171 42.9849 26.7673 43.2143 30.1048 43.0074C30.1395 42.5536 30.2892 42.1162 30.5398 41.7363C29.6559 40.8454 28.8232 39.9234 28.0418 38.97H28.047ZM21.5143 27.4725C21.1794 27.5067 20.8412 27.4694 20.5218 27.3631C18.8097 31.065 17.7008 35.0168 17.2372 39.069C17.7546 39.1575 18.2456 39.3603 18.6746 39.6626C19.1036 39.965 19.4597 40.3593 19.717 40.8168C21.8081 39.9681 23.8191 38.9343 25.7262 37.7275C25.6616 37.4753 25.6528 37.212 25.7005 36.956C25.7482 36.7 25.8512 36.4575 26.0023 36.2454C24.1409 33.5229 22.6328 30.5751 21.5143 27.4725ZM53.9359 35.563L52.9512 34.8597C47.9192 39.091 41.9002 41.9831 35.4524 43.2679C35.4435 43.7041 35.3281 44.1315 35.1164 44.513C36.8441 45.8429 38.6829 47.022 40.6124 48.0372C40.9278 47.6809 41.3136 47.3939 41.7455 47.1944C42.1775 46.9949 42.6461 46.8872 43.1218 46.8782C43.5975 46.8691 44.0699 46.9589 44.5092 47.1418C44.9484 47.3247 45.3449 47.5968 45.6735 47.9408C49.5672 44.7012 52.4374 40.4014 53.9359 35.563ZM47.4396 22.8725C45.6292 24.7271 42.8135 21.9765 44.6212 20.1219C46.4289 18.2673 49.2473 21.0179 47.4396 22.8725ZM31.988 30.5879C32.2698 30.1445 32.7057 29.8212 33.2117 29.6803C33.7177 29.5394 34.2579 29.5908 34.7283 29.8247C39.4715 24.1443 42.4582 17.2059 43.324 9.85647C42.7912 9.78026 42.2888 9.56204 41.8695 9.22472C41.4501 8.8874 41.1293 8.44341 40.9406 7.93936C33.4122 11.0248 27.0402 16.3921 22.7203 23.2867C23.1426 23.6206 23.4383 24.0886 23.5586 24.6134C23.6789 25.1381 23.6165 25.6882 23.3819 26.1728C26.0512 28.0044 28.9433 29.488 31.988 30.5879ZM31.988 32.7889C31.7479 32.3994 31.6427 31.9417 31.6885 31.4865C28.5396 30.3543 25.5491 28.8224 22.7906 26.9281C22.675 27.0267 22.5503 27.1139 22.4181 27.1886C23.5 30.1771 24.9517 33.0184 26.7394 35.6463C27.0186 35.5257 27.3239 35.4781 27.6265 35.5082C27.9291 35.5383 28.2191 35.645 28.469 35.8182C29.7005 34.8805 30.8739 33.8688 31.9828 32.7889H31.988ZM35.2753 33.1509C34.9394 33.4947 34.4958 33.7129 34.0185 33.7694C33.5412 33.8258 33.059 33.7169 32.6523 33.4609C31.525 34.558 30.3334 35.587 29.0837 36.5424C29.2203 36.848 29.2684 37.1858 29.2223 37.5174C29.1763 37.849 29.038 38.161 28.8232 38.4178C29.563 39.319 30.3522 40.1934 31.191 41.0408C31.5317 40.8038 31.9221 40.648 32.3323 40.5852C32.7425 40.5224 33.1617 40.5543 33.5577 40.6785C33.9537 40.8027 34.316 41.0159 34.6168 41.3017C34.9177 41.5875 35.1492 41.9385 35.2935 42.3276C41.6137 41.0621 47.5092 38.2129 52.4277 34.047C52.3116 33.7614 52.243 33.4587 52.2245 33.1509C46.7207 34.1817 41.0602 34.0254 35.6217 32.6925C35.5275 32.8603 35.4109 33.0145 35.2753 33.1509ZM15.2185 17.1316C15.4067 17.2343 15.5717 17.3746 15.7034 17.5438C15.835 17.713 15.9304 17.9075 15.9837 18.1152C16.037 18.3229 16.0469 18.5393 16.013 18.7509C15.979 18.9626 15.9019 19.1651 15.7864 19.3457C17.008 20.7771 18.3331 22.1169 19.7508 23.3544C19.8892 23.2332 20.0424 23.1299 20.2067 23.047C18.9509 17.6279 18.855 12.0046 19.9253 6.5458L19.7508 6.49892C17.7024 9.7931 16.1704 13.3815 15.2081 17.1394L15.2185 17.1316ZM8.57635 33.0207C10.2622 35.5264 12.2353 37.8264 14.4553 39.8739C14.6703 39.687 14.9084 39.5285 15.1638 39.4024C14.0647 36.1816 13.3887 32.8316 13.1529 29.4365C11.534 30.5162 10.0005 31.7189 8.56593 33.0337L8.57635 33.0207ZM14.0776 28.8322C14.2755 32.3213 14.9485 35.7671 16.0781 39.0742L16.2891 39.0403C16.761 34.8229 17.9152 30.7102 19.7065 26.863C19.4899 26.6607 19.3131 26.4195 19.1856 26.1519C17.4139 26.9192 15.7029 27.8195 14.0672 28.8453L14.0776 28.8322ZM19.1752 24.0942C17.7053 22.8087 16.3332 21.4156 15.07 19.9265C14.9174 19.9894 14.7555 20.0273 14.5908 20.0385C14.1468 22.5781 13.96 25.156 14.0333 27.733C15.6077 26.7773 17.2476 25.9339 18.9407 25.209C18.9249 24.829 19.0018 24.4508 19.1647 24.1072L19.1752 24.0942ZM29.2218 48.2925C29.939 47.3357 30.6023 46.3563 31.2118 45.3543C30.7244 45.0127 30.3686 44.5145 30.2038 43.9425C26.8024 44.1557 23.3878 43.9272 20.0452 43.2627C19.9853 43.5054 19.898 43.7405 19.7847 43.9634C22.7141 45.834 25.8858 47.2949 29.2114 48.3055L29.2218 48.2925ZM26.0179 52.0616L28.594 49.113C25.3004 48.083 22.1578 46.6211 19.2481 44.7656L18.774 45.198C20.0758 47.553 21.623 49.7637 23.3897 51.7933C23.8013 51.5591 24.2756 51.4591 24.7467 51.5072C25.2178 51.5553 25.6621 51.7491 26.0179 52.0616ZM29.563 49.4047L26.591 52.8274C26.7048 53.0734 26.7719 53.3383 26.7889 53.6088C31.2867 54.0803 35.829 53.3514 39.9534 51.4964C39.8829 51.3053 39.8297 51.1083 39.7945 50.9077C36.3328 50.8589 32.8926 50.3535 29.563 49.4047ZM28.0861 24.7427C26.393 24.4823 26.8045 21.8931 28.495 22.164C30.1855 22.4349 29.787 25.0136 28.0965 24.7427H28.0861ZM3.92683 28.1732C3.92454 30.3206 4.19411 32.4596 4.7291 34.5393C5.01646 34.5226 5.3041 34.567 5.57305 34.6695C6.14089 34.0548 6.72696 33.4583 7.32346 32.8879C6.31131 31.3202 5.41296 29.6819 4.63533 27.9857C4.40832 28.0787 4.17015 28.1418 3.92683 28.1732ZM9.04261 12.852C6.8433 15.812 5.29758 19.2053 4.5077 22.8074C4.95207 22.9754 5.34649 23.2536 5.65397 23.6157C5.96145 23.9779 6.17191 24.4122 6.26564 24.878C6.35936 25.3437 6.33326 25.8256 6.1898 26.2785C6.04634 26.7314 5.7902 27.1405 5.44541 27.4673C6.19291 29.1138 7.0582 30.7043 8.03456 32.2262C9.61094 30.7942 11.3019 29.4936 13.0904 28.3373C12.9705 25.4905 13.1592 22.639 13.6531 19.8327C13.4713 19.7196 13.3146 19.5704 13.1929 19.3943C13.0712 19.2181 12.987 19.0188 12.9454 18.8088C12.9039 18.5988 12.906 18.3824 12.9515 18.1732C12.9971 17.964 13.0851 17.7664 13.2102 17.5926C12.1373 16.1151 11.1695 14.564 10.3137 12.9509C9.88998 13.0502 9.44589 13.0156 9.04261 12.852ZM18.1593 5.29812C15.7727 6.48069 13.5846 8.02731 11.6734 9.88252C11.9121 10.3125 11.9935 10.8121 11.9037 11.2956C11.8138 11.779 11.5583 12.2161 11.1811 12.5316C12.0073 14.0946 12.9421 15.5978 13.9786 17.03C14.0727 16.9992 14.1696 16.9774 14.2678 16.9649C15.244 13.1212 16.8004 9.44888 18.8834 6.07434L18.1593 5.29812ZM41.1855 5.46222C39.0103 4.35412 36.6902 3.55709 34.2933 3.09448C33.8531 6.53278 28.6774 6.11602 28.7972 2.64386C27.0131 2.69408 25.2392 2.93066 23.5043 3.34975C23.5899 4.12736 23.3639 4.90721 22.8757 5.51848C22.3874 6.12974 21.6768 6.52258 20.8995 6.61092C19.8379 11.9646 19.9267 17.4828 21.16 22.7996C21.407 22.7838 21.655 22.8075 21.8946 22.8699C26.3536 15.7062 32.9715 10.1427 40.7948 6.9808C40.774 6.44736 40.9049 5.91897 41.1725 5.45701L41.1855 5.46222ZM54.9908 30.1555C55.2054 27.3906 54.966 24.6093 54.2823 21.9218C51.3493 22.4271 49.8385 18.434 52.4251 16.8972C50.8802 13.7597 48.7082 10.9725 46.0434 8.70777C45.6194 9.28809 44.9927 9.68787 44.2878 9.82782C43.4247 17.4145 40.3576 24.582 35.4654 30.4446C35.7499 30.8248 35.896 31.2907 35.8796 31.7652C41.2769 33.0844 46.8961 33.2168 52.3495 32.1533C52.5246 31.5869 52.8723 31.0894 53.344 30.7302C53.8157 30.3711 54.3878 30.1683 54.9804 30.1502L54.9908 30.1555ZM18.9512 51.4807C20.0974 52.0016 21.2806 52.4369 22.491 52.7831C22.5465 52.6644 22.6127 52.551 22.689 52.4445C20.8713 50.3612 19.2795 48.091 17.9405 45.6721C17.6585 45.7808 17.3633 45.8518 17.0627 45.8831C17.1374 47.0986 17.2719 48.3142 17.4664 49.5298C17.6924 49.5595 17.9102 49.6337 18.1073 49.7481C18.3045 49.8625 18.477 50.0147 18.6151 50.1961C18.7531 50.3774 18.8538 50.5843 18.9115 50.8048C18.9692 51.0253 18.9827 51.255 18.9512 51.4807ZM10.0454 44.7813C11.7816 46.8218 13.829 48.5756 16.112 49.9778C16.2347 49.8585 16.3753 49.7592 16.5287 49.6834C16.3238 48.4106 16.1823 47.1299 16.1041 45.8414C15.5272 45.7323 14.9867 45.4808 14.5317 45.1095C14.0768 44.7383 13.7219 44.2593 13.4994 43.7159C12.421 43.9451 11.3357 44.1301 10.2434 44.2707C10.209 44.4515 10.1419 44.6245 10.0454 44.7813ZM7.25834 40.7986C7.5848 41.3733 7.9321 41.9342 8.30024 42.4812C8.65822 42.3808 9.04019 42.4101 9.37863 42.5641C9.71706 42.718 9.99016 42.9867 10.1496 43.3226C11.1915 43.1871 12.2335 43.0091 13.2754 42.7886C13.2292 42.3046 13.286 41.8164 13.4421 41.356C11.058 40.4264 8.77122 39.2643 6.61496 37.8864L6.06535 38.4386C6.42206 39.2453 6.82025 40.033 7.25834 40.7986ZM13.6036 49.4256C12.024 48.2435 10.5792 46.8913 9.29527 45.3934C7.91734 45.9143 6.61235 44.2629 7.50319 43.0491C6.59228 41.7111 5.80749 40.2915 5.15889 38.8085C2.86409 39.1419 1.73361 35.9797 3.77576 34.8128C3.21477 32.6284 2.93381 30.3816 2.93962 28.1263C-0.21736 27.4048 0.280152 22.6954 3.52049 22.6563C4.31707 18.8986 5.92527 15.3604 8.23252 12.2893C6.65142 10.466 8.9853 7.84298 10.9832 9.1636C12.973 7.22639 15.2559 5.61508 17.7478 4.38905C16.9272 1.00285 21.7278 -0.669415 23.2178 2.43026C25.1047 1.96766 27.0371 1.71606 28.9795 1.68009C29.9928 -0.778815 33.629 -0.458428 34.2229 2.10727C36.8643 2.59667 39.4186 3.47445 41.8028 4.71204C44.0612 2.84442 47.364 5.02983 46.4654 7.83777C49.3327 10.2327 51.6618 13.2063 53.3003 16.5638C56.2645 16.0142 57.7935 20.0776 55.1627 21.5988C55.894 24.4299 56.1484 27.3631 55.9155 30.2779C58.9891 31.226 58.2155 35.9875 54.8736 35.7974C53.361 40.8841 50.35 45.3965 46.2335 48.7457C47.9683 52.1319 43.5767 55.4947 40.7791 52.7649C40.6465 52.6351 40.5245 52.4949 40.4145 52.3455C36.1062 54.3041 31.3505 55.0679 26.6457 54.557C25.7496 56.9013 22.2175 56.2136 22.2618 53.7026C20.9826 53.3439 19.7323 52.8894 18.5214 52.3429C18.2663 52.6138 17.9293 52.7934 17.5622 52.8541C17.1951 52.9148 16.8183 52.8533 16.4895 52.6791C16.1608 52.5048 15.8984 52.2274 15.7426 51.8895C15.5869 51.5515 15.5464 51.1718 15.6275 50.8087C14.9476 50.3867 14.2678 49.9231 13.6036 49.4256ZM28.2736 11.2943C26.1273 10.7004 27.0338 7.43143 29.1775 8.02271C31.3212 8.61399 30.4174 11.8856 28.2736 11.2943ZM8.72482 20.958C7.42244 20.5959 7.96683 18.5955 9.27703 18.9575C10.5872 19.3196 10.0454 21.3227 8.72482 20.958ZM38.3281 39.0924C36.5203 38.5949 37.2862 35.8391 39.0887 36.3392C40.8912 36.8393 40.141 39.5925 38.3359 39.0924H38.3281ZM32.061 45.7763C31.4792 46.7314 30.8524 47.6682 30.1803 48.5868C33.3053 49.4429 36.5261 49.8998 39.7659 49.9465C39.8056 49.5617 39.9104 49.1865 40.0759 48.8369C38.1239 47.8006 36.2627 46.6016 34.5121 45.2527C34.1798 45.5351 33.7827 45.7307 33.3563 45.822C32.93 45.9134 32.4876 45.8977 32.0688 45.7763H32.061Z" fill="url(#paint0_linear_392_56)"/>
</g>
</g>
<defs>
<linearGradient id="paint0_linear_392_56" x1="3.84087" y1="41.4498" x2="56.1265" y2="15.0608" gradientUnits="userSpaceOnUse">
<stop stop-color="#FFC935"/>
<stop offset="0.27" stop-color="#FFC031"/>
<stop offset="0.7" stop-color="#FFA827"/>
<stop offset="1" stop-color="#FF931E"/>
</linearGradient>
<clipPath id="clip0_392_56">
<rect width="132.351" height="56" fill="white" transform="translate(0.824463)"/>
</clipPath>
</defs>
</svg>
