<svg width="579" height="744" viewBox="0 0 579 744" fill="none" xmlns="http://www.w3.org/2000/svg">
<g clip-path="url(#clip0_15_5315)">
<path d="M568.371 445.762C562.502 445.762 557.743 441.003 557.743 435.133V308.865C557.743 302.996 562.502 298.237 568.371 298.237C574.241 298.237 579 302.996 579 308.865V435.133C579 441.004 574.243 445.762 568.371 445.762Z" fill="#1E7FC6" fill-opacity="0.05"/>
<path d="M503.538 536.105C497.668 536.105 492.909 531.346 492.909 525.477V218.524C492.909 212.654 497.668 207.895 503.538 207.895C509.407 207.895 514.166 212.654 514.166 218.524V525.477C514.166 531.348 509.407 536.105 503.538 536.105Z" fill="#1E7FC6" fill-opacity="0.05"/>
<path d="M434.026 445.762C428.156 445.762 423.397 441.003 423.397 435.133V308.865C423.397 302.996 428.156 298.237 434.026 298.237C439.896 298.237 444.655 302.996 444.655 308.865V435.133C444.655 441.004 439.896 445.762 434.026 445.762Z" fill="#1E7FC6" fill-opacity="0.05"/>
<path d="M369.193 536.105C363.323 536.105 358.564 531.346 358.564 525.477V218.524C358.564 212.654 363.323 207.895 369.193 207.895C375.062 207.895 379.821 212.654 379.821 218.524V525.477C379.821 531.348 375.062 536.105 369.193 536.105Z" fill="#1E7FC6" fill-opacity="0.05"/>
<path d="M302.657 605.828C296.787 605.828 292.028 601.069 292.028 595.2V148.8C292.028 142.931 296.787 138.172 302.657 138.172C308.526 138.172 313.285 142.931 313.285 148.8V595.201C313.285 601.071 308.528 605.828 302.657 605.828Z" fill="#1E7FC6" fill-opacity="0.05"/>
<path d="M238.249 490.934C232.379 490.934 227.62 486.175 227.62 480.305V263.694C227.62 257.825 232.379 253.066 238.249 253.066C244.118 253.066 248.877 257.825 248.877 263.694V480.305C248.877 486.175 244.118 490.934 238.249 490.934Z" fill="#1E7FC6" fill-opacity="0.05"/>
<path d="M175.114 416.427C169.244 416.427 164.485 411.668 164.485 405.799V338.201C164.485 332.332 169.244 327.573 175.114 327.573C180.983 327.573 185.743 332.332 185.743 338.201V405.799C185.743 411.67 180.985 416.427 175.114 416.427Z" fill="#1E7FC6" fill-opacity="0.05"/>
<path d="M108.899 445.762C103.03 445.762 98.2705 441.003 98.2705 435.133V308.865C98.2705 302.996 103.03 298.237 108.899 298.237C114.769 298.237 119.528 302.996 119.528 308.865V435.133C119.526 441.004 114.769 445.762 108.899 445.762Z" fill="#1E7FC6" fill-opacity="0.05"/>
<path d="M44.8074 530.26C38.9377 530.26 34.1787 525.501 34.1787 519.631V224.369C34.1787 218.499 38.9377 213.74 44.8074 213.74C50.6771 213.74 55.4361 218.499 55.4361 224.369V519.631C55.4361 525.501 50.6786 530.26 44.8074 530.26Z" fill="#1E7FC6" fill-opacity="0.05"/>
</g>
<defs>
<clipPath id="clip0_15_5315">
<rect width="744" height="744" fill="white" transform="translate(-165)"/>
</clipPath>
</defs>
</svg>
