<svg width="20" height="25" viewBox="0 0 20 25" fill="none" xmlns="http://www.w3.org/2000/svg">
<path d="M9.6 12.3828C10.26 12.3828 10.825 12.1478 11.295 11.6778C11.765 11.2078 12 10.6428 12 9.98281C12 9.32281 11.765 8.75781 11.295 8.28781C10.825 7.81781 10.26 7.58281 9.6 7.58281C8.94 7.58281 8.375 7.81781 7.905 8.28781C7.435 8.75781 7.2 9.32281 7.2 9.98281C7.2 10.6428 7.435 11.2078 7.905 11.6778C8.375 12.1478 8.94 12.3828 9.6 12.3828ZM9.6 24.3828C6.38 21.6428 3.975 19.0978 2.385 16.7478C0.795 14.3978 0 12.2228 0 10.2228C0 7.22281 0.965 4.83281 2.895 3.05281C4.825 1.27281 7.06 0.382812 9.6 0.382812C12.14 0.382812 14.375 1.27281 16.305 3.05281C18.235 4.83281 19.2 7.22281 19.2 10.2228C19.2 12.2228 18.405 14.3978 16.815 16.7478C15.225 19.0978 12.82 21.6428 9.6 24.3828Z" fill="white"/>
</svg>
